PathFileType	4	(X/Y/Z)	Patient4_TMGait_0pt8_01_right_10.trc.trc
DataRate	CameraRate	NumFrames	NumMarkers	Units	OrigDataRate	OrigDataStartFrame	OrigNumFrames
85.889570552147	85.889570552147	6	33	mm	85.889570552147	71	       141
Frame#	Time	Sacral			L.Shoulder			Chest			R.Shoulder			Neck			R.ASIS			L.ASIS			R.Thigh.Superior			R.Thigh.Lateral			R.Thigh.Inferior			R.Patella			L.Thigh.Superior			L.Thigh.Lateral			L.Thigh.Inferior			L.Patella			L.Shank.Superior			L.Shank.Lateral			L.Shank.Inferior			R.Shank.Superior			R.Shank.Lateral			R.Shank.Inferior			R.Heel			R.Midfoot.Superior			R.Midfoot.Lateral			R.Toe			L.Heel			L.Midfoot.Lateral			L.Midfoot.Superior			L.Toe			L.Elbow			L.Wrist			R.Elbow			R.Wrist			
		X1	Y1	Z1	X2	Y2	Z2	X3	Y3	Z3	X4	Y4	Z4	X5	Y5	Z5	X6	Y6	Z6	X7	Y7	Z7	X8	Y8	Z8	X9	Y9	Z9	X10	Y10	Z10	X11	Y11	Z11	X12	Y12	Z12	X13	Y13	Z13	X14	Y14	Z14	X15	Y15	Z15	X16	Y16	Z16	X17	Y17	Z17	X18	Y18	Z18	X19	Y19	Z19	X20	Y20	Z20	X21	Y21	Z21	X22	Y22	Z22	X23	Y23	Z23	X24	Y24	Z24	X25	Y25	Z25	X26	Y26	Z26	X27	Y27	Z27	X28	Y28	Z28	X29	Y29	Z29	X30	Y30	Z30	X31	Y31	Z31	X32	Y32	Z32	X33	Y33	Z33	

71	11.755000000000	849.965344341132	995.632307261734	526.736967956965	999.681754270483	1418.764223411705	333.682103827269	1124.571016190650	1348.042943145697	478.585846348662	1065.535086931097	1421.674805447447	662.286283246833	1003.619574751652	1476.456364448259	491.712549800123	1079.937947551818	920.754363119962	627.148395689920	1048.204857917696	939.018867472598	352.591512770389	1056.357812756339	706.215180914440	602.548213239428	940.306639128512	623.663444449641	664.411639250105	991.135522613908	552.406606701576	584.358433416991	963.504413789728	469.713612863533	588.051902624343	1123.905609433461	761.778242896165	383.529782158993	1073.535340893389	629.472537608259	307.675840722818	1183.849935820971	577.787165862299	362.641211060357	1212.356201102637	514.524438571743	360.689470183482	1200.381659273910	440.606035757756	352.979186900362	1138.380718179796	305.483433489231	312.679247938297	1235.235536904499	214.077968187425	364.041176652325	918.113702605863	390.949110885598	594.851630677793	828.729567337121	301.576613829408	656.386281357533	851.408511304379	201.563869806601	590.883531728167	695.005186662817	48.363612254447	554.308900478267	866.326819393397	96.434572911851	596.131715934033	775.293082831046	37.584006921948	630.431503020823	983.840229783314	39.464153821688	628.057588082128	1163.829140461776	36.639303923405	410.396874615653	1233.513911234878	41.963886557412	326.502345765990	1303.689486246641	118.600354804204	344.974548472606	1435.971334573238	90.577123660760	311.991644968562	833.816351522582	1108.010499002517	253.457133381064	752.678352732059	863.297400212243	269.724227743101	1237.379853354432	1130.728793563157	768.337448788581	1477.434926532771	1188.241264178629	704.823375863397	
72	11.766642857143	851.505529270676	994.655774714199	523.770176494811	1000.969814577853	1417.868746147460	331.556191429299	1125.521178797764	1347.347615673340	476.854749097617	1065.624082715623	1421.008977465918	660.268774878478	1004.160135758834	1475.501303204553	489.623849751871	1081.075151089387	919.237264606164	625.200423327759	1050.432196116266	938.103274872835	350.665926545598	1056.814791531846	704.651323125730	600.754837528115	940.199965981291	622.630884579239	662.322129385260	991.143803903811	550.759703282628	582.762251935741	962.452346403520	467.524994508133	586.435004692731	1125.804901233931	759.711849774756	381.989120107935	1073.773216023079	627.510209845389	307.584656562376	1183.741102384038	575.543749940172	362.962550247235	1210.864907919637	511.426910942511	361.926764807051	1198.542850348050	437.501936380487	353.849972986083	1135.322096478152	302.993634678619	313.885042655740	1230.685354810903	210.742959930435	365.964884168206	915.467994727183	389.467815561649	593.489038936704	824.192195021839	302.218062030690	655.355472649098	844.866851582697	201.454538022408	590.478130482559	685.945734264400	50.325156347469	554.624994526366	857.704482095050	96.745313641150	596.312740872312	766.217651341679	38.354290630507	630.564594726873	974.649899972620	38.983582014002	628.113260605808	1155.577938999035	36.399077075653	412.466084703540	1225.219512433753	40.121009826175	328.395725280865	1298.129801975573	113.634195022581	347.728667255967	1429.479312300480	81.031212648007	314.354273713139	833.669911160766	1108.364993233331	251.701407106207	749.977567831124	864.510153245757	268.897630052524	1238.704754367207	1130.872593155514	765.236166529191	1474.632109216745	1199.811601067107	701.389571532454	
73	11.778285714286	853.110675607335	993.859434625595	520.731442499088	1002.307959130227	1417.151592047009	329.411923595175	1126.554234682497	1346.847108523464	475.081912824431	1065.847254435639	1420.497318780871	658.279467317127	1004.799009210080	1474.771530700024	487.529666804447	1082.296579953007	917.893418620515	623.043117684946	1052.608659145845	937.575308390325	348.588133841707	1057.527215236479	703.316996652910	598.728306085550	940.499419156464	621.734914224336	660.078458295778	991.670157562924	549.248066878996	581.049233670970	961.959216097447	465.342523714518	584.781110089338	1127.897279079329	758.230454733131	380.395584382776	1074.741066566090	626.324181581330	307.021301235572	1184.117756253058	573.974406594540	363.221038731900	1209.849579465554	508.897564439130	362.951302298252	1197.111841957772	434.912591975706	354.455968030476	1132.670308305517	301.207787172302	314.190729216714	1225.927806830869	207.809131678723	367.394537395891	913.239893559817	388.101941126054	592.126383539476	819.972587404338	303.159259097750	654.290222127215	838.597785170721	201.613354570612	590.141403057783	677.006266178339	52.854524546182	555.012652637155	849.315427168626	97.170582307488	596.587791380018	757.228016513164	39.396414106078	630.738422202657	965.495306582191	38.512669585153	628.149761144120	1146.564163362955	36.449636120186	413.789171341903	1216.326520617725	38.617914377617	329.666948679856	1291.911469189221	109.084870730778	349.967952644117	1422.358648913335	71.972277268910	316.484645404711	834.537389762006	1108.236829643765	249.744252190216	748.834982440556	865.072398863793	267.609600441982	1239.216343532249	1130.460225009605	762.391921223478	1470.805344540390	1209.800469133852	698.326398870478	
74	11.789928571429	854.751858244447	993.308100103332	517.654414648508	1003.658282543133	1416.681481978095	327.282797965572	1127.650145945403	1346.588142592304	473.275037531307	1066.231129994063	1420.179007797490	656.336389864531	1005.538750454071	1474.324447645760	485.461845106104	1083.567330551040	916.793519787069	620.652211978261	1054.679307555811	937.486606205583	346.330288659047	1058.462781323341	702.281730577844	596.474925392302	941.195695441449	621.039466375461	657.720690399002	992.701933361972	547.946763291377	579.248412013860	962.056542036130	463.231680579651	583.181068947300	1130.125517412508	757.431452770174	378.745240619881	1076.427278600670	625.974973981512	305.936688950076	1184.949275807529	573.110103027380	363.296579782035	1209.311779132446	507.011654573900	363.624553547242	1196.095575338886	432.901422474925	354.744416812273	1130.461648900586	300.158133106029	313.620345464517	1221.062757354177	205.380990985176	368.317419689542	911.449089933482	386.918169438480	590.841380316094	816.101802789570	304.470552845453	653.244925811424	832.650989008429	202.109955057913	589.932487163093	668.230154292056	56.051951720992	555.496692982947	841.214836220320	97.721466585008	596.996304951887	748.345215678757	40.758569426191	630.965091346215	956.377942788437	38.074579261795	628.158906077713	1137.143497144599	36.710138283817	414.437658344179	1207.139733814734	37.488789707535	330.358723323923	1285.146002389942	105.199351857535	351.631889484683	1414.770893778324	63.974739816111	318.261907331756	836.377465031080	1107.686971016301	247.577458964972	749.306311385274	864.988796302693	265.831848020305	1238.840979455546	1129.473306043285	759.845822660878	1466.092183201643	1218.097192786809	695.652287373192	
75	11.801571428571	856.395681468112	993.059082482307	514.552329728208	1004.982866053587	1416.526773321565	325.200484616713	1128.782980873590	1346.615754953184	471.445101286091	1066.781150571771	1420.088498464228	654.453061614908	1006.370417066037	1474.207195502373	483.452423376599	1084.853806327365	916.006853703966	618.003897099574	1056.611538290136	937.868772071044	343.861713350910	1059.601645082567	701.609058418240	594.008962240931	942.289886479430	620.595717576272	655.285993332644	994.247757002402	546.920604548805	577.393505535855	962.799011697127	461.251100463468	581.731999684019	1132.429576483592	757.359322171868	377.014355760922	1078.730908206763	626.434915742810	304.347738529994	1186.146268861481	572.902254686932	363.084075395107	1209.186613140049	505.761602335951	363.860579527659	1195.421422970112	431.456265598726	354.710580416083	1128.611037331225	299.801735710060	312.317285907478	1216.106200065354	203.491567880162	368.788505633950	910.145152451609	385.969109921726	589.712506658306	812.634083566923	306.210845512637	652.269358088374	827.093768961564	203.001220523102	589.907388577984	659.673616377604	60.014545218378	556.103055682026	833.458384186753	98.402666725954	597.575004950593	739.595927267926	42.492186077553	631.257541665120	947.297905729502	37.692001536187	628.134266058102	1127.565269993509	37.091702711449	414.542199963196	1197.852390247224	36.728181743090	330.568909642449	1277.892821985344	102.122244574183	352.735992644328	1406.812984886828	57.411323830682	319.614604623273	839.124257967764	1106.812232071851	245.198685707069	751.433412994269	864.298940722359	263.551450822800	1237.506026544380	1127.920551724970	757.615090393667	1460.649524478989	1224.599474478678	693.378963623851	
76	11.813214285714	858.007776821638	993.153110943894	511.417289925250	1006.248485090563	1416.746000594795	323.189644162426	1129.923043417101	1346.966572560770	469.604304144695	1067.477280713302	1420.250155432350	652.636172878779	1007.273514943545	1474.449637940626	481.527712804876	1086.128376192178	915.592883884777	615.083188817760	1058.398895729174	938.726450846888	341.156966932829	1060.940264052035	701.347151651075	591.355793785164	943.793707257997	620.433546525270	652.807329289689	996.337350326042	546.214229820554	575.522984014682	964.258483747400	459.445434121431	580.526324840421	1134.746192813737	757.984356228316	375.158654217500	1081.446516733686	627.577899253748	302.335269728780	1187.554643211491	573.222101212956	362.511306104570	1209.340944254904	505.062667618981	363.644371374985	1194.944918371021	430.499971692443	354.394122837662	1126.942965420186	300.027666667795	310.510158366064	1211.020685081827	202.109318006533	368.910040697865	909.404057600250	385.286704818544	588.810266440099	809.645265335987	308.420356207842	651.403609438063	822.007578559946	204.326095402175	590.112394121351	651.407421171803	64.831930774799	556.855771586545	826.097685401880	99.212373374924	598.352008050149	731.013518075389	44.653452445675	631.628578303155	938.253468838923	37.382426712453	628.073005694472	1117.985075152554	37.513284395329	414.260602083354	1188.571538121547	36.296967071200	330.426297322153	1270.195742192035	99.887718249681	353.357490991451	1398.549373521865	52.421588474620	320.531347593254	842.687654447162	1105.735162546908	242.611089512315	755.236827318910	863.074709638740	260.772637225670	1235.147296097137	1125.840234259966	755.691269119674	1454.653041505176	1229.213947610439	691.510709520902	
